<?xml version="1.0" encoding="UTF-8"?><svg id="Layer_1" xmlns="http://www.w3.org/2000/svg" viewBox="0 0 2007.48 300"><defs><style>.cls-1{fill:#efe7de;}</style></defs><path class="cls-1" d="M1539.39,195.51l-.38,1.63c-2.61,11.23-5.66,20.68-9.05,28.08-3.33,7.23-7.41,12.85-12.13,16.7-4.59,3.75-10.18,5.65-16.59,5.65h-58.8c-6.28,0-10.69-1.4-13.12-4.18-2.5-2.85-3.76-7.74-3.76-14.54v-76.91h56.08c3.34,0,6.33,1.12,8.88,3.32,2.68,2.32,4.96,5.8,6.77,10.36,1.86,4.7,3.31,10.82,4.31,18.19l.25,1.83h9.46v-78.94h-9.46l-.25,1.82c-1,7.16-2.45,13.24-4.32,18.06-1.8,4.64-4.06,8.11-6.73,10.31-2.56,2.12-5.56,3.19-8.92,3.19h-56.08V50.28h68.64c7.06,0,13.23,1.92,18.34,5.71,5.21,3.87,9.63,9.48,13.14,16.68,3.59,7.38,6.73,16.72,9.34,27.74l.38,1.62h9.74l-12.47-63.63h-191.4l-95.07,198.65-93.99-198.65h-108.18v9.57l1.95.15c7.95.6,14.17,1.64,18.47,3.11,3.99,1.36,6.8,3.37,8.37,5.98,1.63,2.71,2.45,6.57,2.45,11.49l1.41,159.04-126.8-189.34h-37.84v9.53l1.91.19c8.26.79,15.01,2.51,20.06,5.13,2.27,1.18,4.46,2.75,6.52,4.67v171.25c0,6.85-1.85,11.81-5.49,14.74-1.98,1.59-4.9,2.9-8.68,3.89-1.71.45-3.46.68-5.21.68-4.41,0-8.57-1.46-11.7-4.12-.4-.34-.78-.69-1.15-1.07-4.07-4.07-8.35-11.66-12.7-22.55l-72.18-184.79h-8.4l-71.27,184.5c-4.16,10.88-8.45,18.55-12.77,22.77-3.52,3.42-8.3,5.38-13.1,5.38-1.32,0-2.62-.14-3.88-.42-4.51-1-7.86-2.38-9.97-4.11-3.45-2.83-5.2-7.84-5.2-14.91V69.3c0-7.29,1.71-12.47,5.09-15.41,3.5-3.05,10.61-4.98,21.13-5.77l1.95-.15v-9.57h-42.94l-95.07,198.65-93.99-198.65h-111.55v9.57l1.94.15c9.93.78,16.91,2.74,20.74,5.82,3.64,2.94,5.49,8,5.49,15.05l.07,127.49c-4.36,16.64-12.32,29.93-23.67,39.5-11.29,9.53-25.62,14.36-42.59,14.36-18.05,0-32.04-5.72-41.57-17.02-9.62-11.39-14.51-28.24-14.51-50.09v-114.23c0-7.06,1.85-12.12,5.49-15.05,3.83-3.08,10.81-5.04,20.74-5.82l1.94-.15v-9.57h-139.58v9.57l1.94.15c9.93.78,16.91,2.74,20.74,5.82,3.64,2.94,5.49,8,5.49,15.05v70.78h-115.84v-70.78c0-7.06,1.85-12.12,5.49-15.05,3.83-3.08,10.81-5.04,20.74-5.82l1.94-.15v-9.57H44.43v9.57l1.94.15c9.93.78,16.91,2.74,20.74,5.82,3.64,2.94,5.49,8,5.49,15.05v160.17c0,7.05-1.79,12.06-5.33,14.89-3.73,2.99-10.76,4.9-20.89,5.67l-1.95.15v9.58h74.04v-9.58l-1.95-.15c-10.14-.77-17.17-2.68-20.9-5.67-3.54-2.82-5.33-7.83-5.33-14.89v-77.52h115.84v77.52c0,7.05-1.79,12.06-5.33,14.89-3.73,2.99-10.77,4.9-20.9,5.67l-1.94.15v9.57h74.04v-9.58l-1.95-.15c-10.13-.77-17.16-2.68-20.9-5.67-3.54-2.82-5.33-7.83-5.33-14.89V68.99c0-7.06,1.85-12.12,5.49-15.05,1.73-1.39,4.14-2.56,7.16-3.49,3.65-1.12,7.44-1.68,11.27-1.68s7.63.57,11.27,1.69c3.03.92,5.44,2.09,7.16,3.48,3.64,2.94,5.49,8,5.49,15.05v114.23c0,25.13,6.57,45.09,19.54,59.3,13.01,14.28,31.25,21.52,54.23,21.52,17.14,0,31.84-4.63,43.7-13.76,9.3-7.17,16.86-16.7,22.48-28.38v37.55h110.48v-9.57l-1.94-.15c-9.93-.77-16.91-2.73-20.74-5.82-3.64-2.93-5.49-7.9-5.49-14.76l-1.12-154.37,88.64,186.82h8.16l92.08-188.79-.57,156.37c0,4.94-.74,8.83-2.2,11.56-1.38,2.58-3.89,4.57-7.45,5.91-3.89,1.45-9.47,2.49-16.59,3.09l-1.93.16v9.56h130.7v-9.64l-2.02-.09c-9.36-.4-16.42-1.39-21-2.95-4.12-1.4-6.53-3.63-7.37-6.81-.9-3.42-.1-8.45,2.39-14.95l15.72-41.51h91.11l14.81,38.78c3.3,8.35,4.55,14.49,3.73,18.22-.75,3.4-3.02,5.59-6.94,6.69-4.51,1.28-11.97,2.13-22.16,2.53l-2.03.07v9.65h135.29v-9.58l-1.95-.15c-7.94-.59-14.21-1.64-18.63-3.11-4.1-1.37-7.03-3.4-8.69-6.02-1.71-2.69-2.58-6.54-2.58-11.44l-1.12-155.66,125.9,188.1h9.97V68.69c0-6.83,1.94-11.78,5.75-14.71,2.55-1.95,6.41-3.47,11.47-4.51,2.76-.56,5.59-.85,8.4-.85s5.61.28,8.33.84c4.97,1.02,8.67,2.48,11,4.34,3.54,2.83,5.33,7.85,5.33,14.89v160.48c0,6.85-1.85,11.81-5.49,14.74-3.83,3.09-10.81,5.04-20.74,5.82l-1.94.15v9.57h69.14v-9.57l-1.94-.15c-9.93-.77-16.91-2.73-20.74-5.82-3.64-2.93-5.49-7.9-5.49-14.76l-1.13-154.37,88.64,186.81h8.16l92.08-188.79-.57,156.37c0,4.93-.74,8.82-2.2,11.56-1.38,2.59-3.89,4.58-7.46,5.91-3.89,1.45-9.47,2.49-16.59,3.09l-1.93.16v9.56h226.49l12.46-63.94h-9.74ZM1407.88,68.69v160.48c0,7.05-1.79,12.06-5.33,14.89-2.12,1.69-5.34,3.05-9.58,4.05-3.6.84-7.32,1.27-11.06,1.27s-7.4-.42-11.01-1.24c-4.34-1-7.59-2.36-9.64-4.06-3.45-2.83-5.2-7.84-5.2-14.91V69.3c0-7.29,1.71-12.47,5.09-15.41,2.31-2.01,6.26-3.55,11.74-4.59,2.95-.56,5.98-.84,8.99-.84s6.07.29,9.01.86c5.28,1.02,9.21,2.53,11.66,4.48,3.54,2.83,5.33,7.84,5.33,14.89ZM857.79,171.63h-81.77l40.17-106.84,41.6,106.84ZM429.32,228.86V68.99c0-7.05,1.85-12.12,5.49-15.05,2.17-1.75,5.41-3.15,9.61-4.17,3.53-.85,7.19-1.28,10.89-1.28s7.19.41,10.7,1.21c4.35,1,7.65,2.38,9.8,4.09,3.54,2.83,5.33,7.84,5.33,14.89v160.48c0,6.85-1.85,11.81-5.49,14.74-2.17,1.75-5.41,3.15-9.61,4.17-3.53.85-7.16,1.28-10.81,1.28s-7.28-.43-10.81-1.28c-4.21-1.02-7.44-2.42-9.61-4.17-3.64-2.93-5.49-8-5.49-15.05Z"/><path class="cls-1" d="M1947.9,91.03c-10.07-16.7-24.42-29.8-42.67-38.93-18.18-9.09-39.42-13.7-63.11-13.7h-164.73v9.57l1.95.15c7.95.6,14.16,1.64,18.47,3.11,3.99,1.36,6.8,3.37,8.37,5.98,1.63,2.71,2.45,6.57,2.45,11.49l1.41,159.04-126.8-189.34h-37.84v9.53l1.91.18c8.26.79,15.01,2.51,20.06,5.13,2.27,1.18,4.46,2.75,6.52,4.67v171.25c0,6.85-1.85,11.81-5.49,14.74-3.83,3.09-10.91,5.04-21.05,5.82l-1.94.15v9.57h73.13v-9.58l-1.95-.15c-7.94-.59-14.21-1.64-18.63-3.11-4.11-1.37-7.03-3.4-8.69-6.02-1.71-2.69-2.58-6.54-2.58-11.44l-1.12-155.66,125.9,188.1h9.97V68.69c0-6.83,1.94-11.78,5.76-14.72,2.2-1.69,5.41-3.06,9.53-4.07,3.37-.83,6.85-1.24,10.34-1.24s6.91.41,10.25,1.23c4,.98,7.06,2.3,9.08,3.91,3.54,2.83,5.33,7.84,5.33,14.89v160.48c0,7.05-1.79,12.06-5.33,14.89-3.73,2.99-10.76,4.9-20.9,5.67l-1.94.15v9.57h98.58c23.7,0,44.94-4.61,63.11-13.7,18.24-9.13,32.6-22.22,42.67-38.93,10.06-16.7,15.16-36.18,15.16-57.9s-5.1-41.2-15.16-57.9ZM1944.14,148.93c0,19.34-4.28,36.66-12.74,51.48-8.45,14.8-20.48,26.48-35.77,34.72-15.34,8.27-33.34,12.46-53.51,12.46h-30.93c-8.77,0-14.66-1.44-17.5-4.28-2.84-2.83-4.28-7.48-4.28-13.82V50.28h52.71c20.17,0,38.17,4.19,53.51,12.45,15.29,8.25,27.33,19.93,35.77,34.72,8.45,14.82,12.74,32.14,12.74,51.48Z"/></svg>