<?xml version="1.0" encoding="UTF-8"?><svg id="Layer_1" xmlns="http://www.w3.org/2000/svg" viewBox="0 0 343.74 305.63"><defs><style>.cls-1{fill:#efe7de;}</style></defs><path class="cls-1" d="M0,83.53c3.43-12.26,14.44-26.53,23.56-35.27,10.92-8.23,26.62-10.26,35.51-21.08C67.66,12.61,82.27-6.09,102.07,1.92c8.53,3.69,13.4,12.36,20.68,18.01,26.46,20.22,67.91-17.25,91.45,44.16,7.81,18.17,15.45,39.16,5.86,57.85-8.13,12.98-14.73,26.77-15.71,42.21-1.19,6.74,1.08,20,10.23,16.43,23.85-11.39,5.47-40.94,18.38-57.96,24.64-18.68,23.92-42.03-2.7-58.64-6.19-5.33-12.59-13.83-12.8-21.92.37-10.43-1.49-25.3,1.44-33.55,15.18,2.02,29.31,8.99,43.84,13.5-3.89,12.28-14.99,24.39-10.77,37.89,7.22,16.03,29.71,24.43,19.13,45.84-4.62,8.37-12.8,14.74-16.14,23.84-13.02,36.43,47.74,58.76,46.93,9.61-.5-41.5-23.94-80.46-18.68-122.43,20.26,3.98,39.55-5.41,59.61-2.79,7.09,59.39-28.83,62.85-14.66,111.04,9.62,27.32,15.24,48.42,10.28,77.47-.69,14.86-4.54,31.71-18.14,40.24-18.71,8.72-42.54,2.14-54.56-14.16-4.74,24.03,13.14,39.05,37.23,36.99,9.65.03,19.74-.35,28.43,3.73-.22,11.75-.76,23.72-.98,35.47-47.03,6.38-53.59-23.47-78.33-51.11-20.55-14.36-48.77-16.16-68.4-32.24-44.3-51.08,55.22-112.59-7.39-161.87,29.12,43.64,1.76,51.08-13.37,89.83-22.28,44.37,20.59,80.73,6.02,126.01-18.52,2.2-17.57-17.09-35.6-21.23,1.13-9.69,7.38-23.5,1.92-43.96-7.14-26.74-2.97-43.64,12.19-65.13,7.8-11.05,9.58-26.72,10.51-39.89.57-13.79-2.43-30.68-16.5-37.39-20.05-7.77-45.56-1.6-58.86,14.86-10.19,16.19,9.57,23.68,23.23,24.76,9.02.75,21.23.32,25.75,9.46-3.91,5.59-7.43,11.56-10.56,17.59-22.49-33.76-64.82-8.67-97.28-14.23-21.5-7.32-15.6-32.35,3.39-38.94,7.5-6.57,80.74-28.99,62.83-39.59-8.39-.2-14.2,8.46-22.12,10.36-8.5,2.75-17.85.55-26.75,1.64-16.76,2.48-21.4,13.51-34.64,32.73.76-1.1-5.26-2.24-6.44-2.91Z"/><path class="cls-1" d="M138.81,6.98c-15.31,3.96,9.05,18.07,10.11,5.77.05-5.1-5.79-6.2-10.11-5.77Z"/><path class="cls-1" d="M222.58,252.88c-.52,6.25,12.62,10.82,15.91,5.22,1.27-7.5-12.65-12.34-15.91-5.22Z"/></svg>