<?xml version="1.0" encoding="UTF-8"?><svg id="Layer_1" xmlns="http://www.w3.org/2000/svg" viewBox="0 0 279.98 300"><defs><style>.cls-1{fill:#295cbf;}</style></defs><g id="BjHboN"><polygon class="cls-1" points="68.26 38.74 68.26 139 211.72 139 211.72 38.74 242.9 38.74 242.9 53.77 232.06 53.77 231.8 245.48 242.37 245.48 242.37 260.51 211.19 260.51 211.59 185.12 186.36 260.51 155.71 260.51 155.71 245.48 170.24 245.48 198.77 159.21 80.68 159.21 108.94 245.48 123.74 245.48 123.74 260.51 93.49 260.51 68.26 185.64 68.26 260.51 37.08 260.51 37.08 245.48 47.91 245.48 47.91 53.77 37.08 53.77 37.08 38.74 68.26 38.74"/><path class="cls-1" d="M94.88,98.14c18.67-2.21,21,24.91,3.33,26.58-17.84,1.69-20.43-24.56-3.33-26.58Z"/><path class="cls-1" d="M181.01,98.14c18.7-2.21,21.03,24.9,3.33,26.58-17.8,1.69-20.33-24.57-3.33-26.58Z"/></g></svg>