<?xml version="1.0" encoding="UTF-8"?><svg id="Layer_1" xmlns="http://www.w3.org/2000/svg" viewBox="0 0 262.86 388.61"><defs><style>.cls-1{fill:#efe7de;}</style></defs><path class="cls-1" d="M101.43,64.56c-.48.79-.92,1.63-1.11,2.55-.19.92-.1,1.95.4,2.71.71,1.07,2.07,1.4,3.29,1.33,3.21-.2,6.22-3.06,6.45-6.51.16-2.39-1.66-3.38-3.65-3.6-2.42-.27-4.13,1.46-5.39,3.53Z"/><path class="cls-1" d="M56.5,52.92c-10.01,14.2,2.21,32.9-1.21,48.55-6.27,16.74-11.14,23.56-10.25,42.47,6.82.55,13.64,1.1,20.46,1.64,13.17-16.71,14.08-30.3,10.94-51.83-8.99-30.11,23.46-43.55,45.97-45.18,18.84-1.33,38.43-.35,56.59-6.32,16.31-4.7,32.75-22.91,48.99-17.66,20.91-.81,26.99,34.27,1.19,43.26-17.81,6.52-35.85-3.31-52.88-8.35-18.71-7.04-40.89,2.93-51.6,20.41-14.19,21.6-1.48,51.43-13.75,73.17-6.56,8.94-17.49,13.58-27.9,13.31-20.72-1.46-73.78-14.87-66.5,23.85-5.97,43.92-27.54,14.09-9.49,79.68,13.69-10.97,27.33-22.99,37.21-38.14-18.31-22.48-6.7-42.37,19.11-44.87-3.03,10.59,1.2,20.61,4.16,30.46,1.26,36.82-60.26,47.19-54.19,106.47,8.91,27.33-12.14,37.55-9.96,63.4,14.8,2.82,30.59-2.78,44.78,1.36,3.61-17.14,12.96-33.89,11.39-51.85-1.52-9.39-8.21-17.04-9.8-26.41-4.24-24.28,15.88-35.88,30.04-50.48,7.94-9.01,6.84-22.5,11.4-32.86,26.5,27.33,16.05,29.11-6.73,50.2-4.31,5.38-6.98,13.04-4.61,19.65,3.72,9.96,14.88,12.16,22.24,17.98,19.58,17.01,13.88,48.07,11.42,71.92,14.1-.18,28.16.41,42.22,1.47,1.86-75.02-48.02-76.39-28.02-99.82,17.83-12.41,26.81-37.81,10.33-55.84-9.56-10.14-26.25-34.63-21.18-48.94.67-16.13,20.23-26.67,17.77-44.11-1.26-8.92-4.9-17.6-4.16-26.6,1.98-18.37,18.23-31.27,36.49-26.19,9.2,2.56,28.87,20.59,17.56,23.83-13.54,2.42-32.86,8.57-27.43,27.73,1.81,4.52-4.2,9.98-6.53,14.91-6.91,14.62-6.77,17.02-6.77,17.02,0,0,4.42,7.27,16.66,14.08,6.26-11.07,9.33-16.47,8.94-29.62-.68-11.67,11.17-22.27,21.75-20.13-25.55,22.24-6.33,33.18-24.73,54.99,7.16,3.14,17.99,8.55,23.94,13.92,4.44,5.22,8.48,11.27,14.56,14.38,6.23-24.89-19.55-51.1,4.09-69.5,13.45-7.11,28.91-9.89,37.45-25.4,5.71-10.37-4.32-26.43,1.71-36.66,6.67-12.55,14.49-19.22,14.43-34.93,2.29-21.44-10.44-43.32-31.02-45.89-28.32-4.95-54.62,27.91-82.33,17.09C84.94-11.85,10.34-13.38,11.87,64.19c1.49,23.32,14.06,36.94,5.12,59.54-4.47,9.04-9.14,20.16-8.78,30.38,5.78.15,11.45.31,17.22.46,1.03-13.69,10.19-13.55,11.51-27.25,2.24-19.15-13.16-39-3.87-57.89,4.9-8.81,13.55-16.67,23.42-16.52Z"/><path class="cls-1" d="M212.35,50.91c-1.87-.04-3.9.34-5.21,1.8-1.05,1.17-1.48,2.88-1.42,4.5.02.44.07.89.27,1.27.3.57.88.9,1.45,1.14,2.41,1.02,5.07,1.11,7.66,1.19,1.3.04,2.62.08,3.86-.34.63-.21,1.24-.55,1.66-1.1.54-.71.68-1.68.63-2.59-.33-5.56-4.88-5.78-8.89-5.87Z"/><path class="cls-1" d="M83.68,151.71c-1.32.9-2.43,2.62-1.9,4.2.27.83.95,1.44,1.69,1.79.74.35,1.56.48,2.37.59,1.54.22,3.11.42,4.65.17,1.54-.25,3.08-1.01,3.99-2.38.69-1.04.96-2.52.31-3.59-1.98-3.25-8.53-2.54-11.11-.79Z"/></svg>