<?xml version="1.0" encoding="UTF-8"?><svg id="Layer_1" xmlns="http://www.w3.org/2000/svg" viewBox="0 0 424.31 159.7"><defs><style>.cls-1{fill:#efe7de;}</style></defs><path class="cls-1" d="M0,5.41C1.69,3.41,3.64,1.59,5.81,0c11.23,10.02,23.21,20.29,38.06,25.43,9.07,3.13,18.9,4.18,28.05,7.12,11.69,3.76,19.7,12.98,30.37,18.63,3.07,1.63,6.19,3.85,8.96,5.86,7.24,5.28,14.53,10.6,20.5,16.99,5.97,6.39,10.62,14,11.72,22.22.71,5.33-.09,10.74.58,16.07.46,3.67,2.7,8.07,6.88,8.06,3.11-.01,5.36-2.55,6.88-4.94,5.03-7.9,7.61-16.84,12.08-25,3.99-7.3,9.49-13.95,16.15-19.52,5.17-4.32,9.38-9.38,15.65-12.59,6.75-3.46,15.04-4.51,22.64-2.88,1.94.41,3.84,1,5.54,1.93,2.13,1.17,4.04,2.73,5.3,4.65,7.84,11.92,7.99,23.26,24.31,27.68,4.64,1.25,9.53-1.74,12.73-4.93,3.2-3.19,5.25-7.14,7.74-10.8,4.42-6.52,10.9-10.12,19.63-10.55,1.78-.09,3.58-.04,5.31.36,1.9.44,3.65,1.31,5.21,2.37,5.2,3.52,8.19,8.93,11.77,13.77,6.65,9,14.63,17.6,26.14,21.78,9.83,3.58,20.19,3.82,30.37,5.9,14.37,2.93,29.22,4.01,43.92,3.19.71,16.27,1.19,32.62,2.03,48.89-8.07.45-15.01-5.37-19.79-11.15-4.77-5.78-8.95-12.42-16.05-15.85-8.14-3.92-18.1-2.68-27.12-4.55-8.99-1.86-16.79-6.77-23.73-12.17-6.94-5.4-13.31-11.4-20.84-16.14-2.43-1.53-5-2.93-7.84-3.72-3.23-.91-6.68-.99-10.06-.87-3.61.12-7.24.47-10.7,1.41-4.38,1.18-8.42,3.31-11.68,6.13-6.13,5.32-13.62,9.69-21.07,13.48,4.41-1.2,10.08,8.14,34.08-1.7,6.42-2.63,13.84-4.38,20.64-2.6,8.86,2.32,13.91,10.33,20.78,15.81,6.66,5.32,15.36,8.37,24.22,9.59,8.86,1.22,17.91.71,26.77-.41-.08,1.22.45,2.38.98,3.52.99,2.12,1.98,4.25,2.97,6.37-10.35,3.93-21.66,6.02-32.92,6.66-4.68.27-9.58.2-13.77-1.66-3.82-1.7-6.65-4.7-9.63-7.41-2.53-2.3-5.25-4.45-8.12-6.42-1.95-1.34-4-2.61-6.3-3.42-2.69-.94-5.61-1.21-8.49-1.34-10.92-.49-21.93.97-32.2,4.24-6.39,2.04-13.29,3-19.94,4.26-3.72.71-7.46,1.37-11.24,1.73-5.17.49-10.38.42-15.58.24-9.89-.34-20.46-1.32-28.1-6.91-4.6-3.37-7.68-8.15-9.61-13.15-1.93-5-2.81-10.25-3.67-15.47-1.41,1.43-4.02,2.8-5.68,3.99-4.25,3.06-6.4,7.83-7.92,12.49-1.52,4.66-2.63,9.52-5.46,13.67-3.02,4.42-7.96,7.79-13.57,9.26-2.12.55-4.35.84-6.55.61-4.87-.52-9.04-3.6-11.56-7.32-2.52-3.72-3.61-8.05-4.41-12.32-1.22-6.51-1.85-13.09-2.43-19.66-.58-6.65-1.83-12.98-4.82-19.11-.9-1.86-1.81-3.72-3.06-5.42-2.76-3.75-7.01-6.46-11.45-8.61-1.89-.91-3.89-1.76-6.04-1.86-3.24-.15-6.39,1.51-8.17,3.9-1.78,2.39-2.32,5.39-1.95,8.24.61,4.72,3.47,8.97,6.37,12.98,3.6,4.99,7.36,9.9,11.52,14.55,2.43,2.72,5.01,5.37,6.85,8.42,1.44,2.4,2.4,4.99,3.22,7.6,2.41,7.61,3.79,15.48,4.1,23.37-10.21-.17-20.42.48-30.63.31,1.27-9.44,2.14-19,.99-28.46-1.15-9.46-4.43-18.9-10.82-26.59-6.45-7.77-16.13-13.98-18.9-23.29-.46-1.56.19-3.25.14-4.86-3.86.6-7.6,2.02-10.28,4.55-2.68,2.52-4.28,5.97-4.12,9.43.16,3.6,2.14,6.96,4.41,9.96,6.34,8.37,15.47,15.35,19.13,24.88,2.27,5.91,2.22,12.28,2.03,18.51-.16,5.21-.39,10.41-.62,15.62-12.26.71-25.15-2.71-36.77.77-2.77.83-5.52,2.03-8.45,1.88.42-4.53.93-9.05,1.53-13.56.65-4.88,1.4-9.76,1.7-14.67.44-7.15-.09-14.42-2.49-21.28-2.4-6.86-6.75-13.29-13.07-17.82-2.4-1.72-5.07-3.16-7.24-5.1s-3.84-4.56-3.55-7.27c.52-4.89,3.38-9.3,7.92-12.12,4.54-2.81,9.96-4.27,15.28-5.68,5.01-1.33,10.03-2.66,15.04-3.99,2.64-.7,5.6-1.64,6.69-3.87.92-1.87.2-4.03-.52-5.98-.62-1.68-1.34-3.07-2.84-4.25-4.94-3.89-10.39-7.27-16.19-10.07-6.59-3.17-13.65-5.59-19.97-9.18S1.94,11.8,0,5.41Z"/><path class="cls-1" d="M96.76,35.01c.2.74.64,1.39,1.12,1.99,1.29,1.61,2.9,2.98,4.72,4,.94.53,1.96.97,3.04,1.11s2.24-.08,3.09-.74c1.65-1.27,1.67-3.76.93-5.68-1.08-2.82-4.33-6.16-7.42-6.91-3.81-.93-6.39,2.85-5.48,6.23Z"/><path class="cls-1" d="M189.62,50.53c.4.25.87.33,1.34.4,3.13.5,7.31,1.01,9.4-1.95,1.55-2.18,1.01-5.23-1.24-6.7-5.06-3.3-14.35,5.19-9.5,8.25Z"/></svg>